<svg width="1512" height="982" viewBox="0 0 1512 982" fill="none" xmlns="http://www.w3.org/2000/svg">
<g clip-path="url(#clip0_1_2)">
<path d="M1512 0H0V982H1512V0Z" fill="#DEF4FF"/>
<path d="M0 731.59L28.056 720.461C55.944 709.168 112.056 686.909 168 697.711C223.944 708.677 280.056 752.867 336 761.541C391.944 770.379 448.056 743.538 504 742.228C559.944 740.919 616.056 764.814 672 777.908C727.944 791.001 784.056 793.292 840 786.909C895.944 780.69 952.056 765.96 1008 744.683C1063.94 723.407 1120.06 695.583 1176 686.909C1231.94 678.071 1288.06 688.546 1344 690.673C1399.94 692.801 1456.06 686.909 1483.94 683.799L1512 680.853V983.637H1483.94C1456.06 983.637 1399.94 983.637 1344 983.637C1288.06 983.637 1231.94 983.637 1176 983.637C1120.06 983.637 1063.94 983.637 1008 983.637C952.056 983.637 895.944 983.637 840 983.637C784.056 983.637 727.944 983.637 672 983.637C616.056 983.637 559.944 983.637 504 983.637C448.056 983.637 391.944 983.637 336 983.637C280.056 983.637 223.944 983.637 168 983.637C112.056 983.637 55.944 983.637 28.056 983.637H0V731.59Z" fill="#97AEFF"/>
<path d="M0 739.773L28.056 736.5C55.944 733.227 112.056 726.68 168 722.588C223.944 718.497 280.056 716.86 336 713.914C391.944 710.804 448.056 706.549 504 701.803C559.944 697.22 616.056 692.31 672 709.495C727.944 726.68 784.056 765.96 840 768.742C895.944 771.361 952.056 737.646 1008 726.189C1063.94 714.732 1120.06 725.534 1176 745.993C1231.94 766.451 1288.06 796.566 1344 788.546C1399.94 780.69 1456.06 734.863 1483.94 711.95L1512 689.037V983.637H1483.94C1456.06 983.637 1399.94 983.637 1344 983.637C1288.06 983.637 1231.94 983.637 1176 983.637C1120.06 983.637 1063.94 983.637 1008 983.637C952.056 983.637 895.944 983.637 840 983.637C784.056 983.637 727.944 983.637 672 983.637C616.056 983.637 559.944 983.637 504 983.637C448.056 983.637 391.944 983.637 336 983.637C280.056 983.637 223.944 983.637 168 983.637C112.056 983.637 55.944 983.637 28.056 983.637H0V739.773Z" fill="#758DD8"/>
<path d="M0 805.24L28.056 814.569C55.944 823.734 112.056 842.392 168 843.374C223.944 844.52 280.056 828.153 336 831.918C391.944 835.846 448.056 859.741 504 851.558C559.944 843.374 616.056 803.112 672 782.818C727.944 762.687 784.056 762.687 840 760.559C895.944 758.268 952.056 754.012 1008 769.724C1063.94 785.6 1120.06 821.607 1176 832.736C1231.94 844.029 1288.06 830.281 1344 815.551C1399.94 800.821 1456.06 785.109 1483.94 777.089L1512 769.233V983.637H1483.94C1456.06 983.637 1399.94 983.637 1344 983.637C1288.06 983.637 1231.94 983.637 1176 983.637C1120.06 983.637 1063.94 983.637 1008 983.637C952.056 983.637 895.944 983.637 840 983.637C784.056 983.637 727.944 983.637 672 983.637C616.056 983.637 559.944 983.637 504 983.637C448.056 983.637 391.944 983.637 336 983.637C280.056 983.637 223.944 983.637 168 983.637C112.056 983.637 55.944 983.637 28.056 983.637H0V805.24Z" fill="#546DB2"/>
<path d="M0 905.077L28.056 896.402C55.944 887.564 112.056 870.216 168 857.286C223.944 844.52 280.056 836.337 336 828.153C391.944 819.97 448.056 811.787 504 824.553C559.944 837.482 616.056 871.198 672 883.473C727.944 895.748 784.056 886.582 840 875.617C895.944 864.651 952.056 852.212 1008 855.977C1063.94 859.741 1120.06 880.036 1176 880.036C1231.94 880.036 1288.06 859.741 1344 845.829C1399.94 831.918 1456.06 824.389 1483.94 820.461L1512 816.697V983.637H1483.94C1456.06 983.637 1399.94 983.637 1344 983.637C1288.06 983.637 1231.94 983.637 1176 983.637C1120.06 983.637 1063.94 983.637 1008 983.637C952.056 983.637 895.944 983.637 840 983.637C784.056 983.637 727.944 983.637 672 983.637C616.056 983.637 559.944 983.637 504 983.637C448.056 983.637 391.944 983.637 336 983.637C280.056 983.637 223.944 983.637 168 983.637C112.056 983.637 55.944 983.637 28.056 983.637H0V905.077Z" fill="#334F8D"/>
<path d="M0 891.983L28.056 890.838C55.944 889.856 112.056 887.564 168 900.167C223.944 912.769 280.056 939.938 336 953.358C391.944 966.779 448.056 966.124 504 952.213C559.944 938.301 616.056 911.132 672 905.568C727.944 900.167 784.056 916.533 840 926.026C895.944 935.682 952.056 938.301 1008 943.047C1063.94 947.63 1120.06 954.177 1176 957.45C1231.94 960.723 1288.06 960.723 1344 955.486C1399.94 950.412 1456.06 939.938 1483.94 934.864L1512 929.627V983.637H1483.94C1456.06 983.637 1399.94 983.637 1344 983.637C1288.06 983.637 1231.94 983.637 1176 983.637C1120.06 983.637 1063.94 983.637 1008 983.637C952.056 983.637 895.944 983.637 840 983.637C784.056 983.637 727.944 983.637 672 983.637C616.056 983.637 559.944 983.637 504 983.637C448.056 983.637 391.944 983.637 336 983.637C280.056 983.637 223.944 983.637 168 983.637C112.056 983.637 55.944 983.637 28.056 983.637H0V891.983Z" fill="#0B336A"/>
</g>
<defs>
<clipPath id="clip0_1_2">
<rect width="1512" height="982" fill="white"/>
</clipPath>
</defs>
</svg>
