<svg width="228" height="75" viewBox="0 0 228 75" fill="none" xmlns="http://www.w3.org/2000/svg">
<path d="M0 7.625L3.47067 7.875C6.916 8.125 13.8573 8.625 20.7733 9.25C27.6893 9.875 34.6307 10.625 41.496 10.25C48.3867 9.875 55.2267 8.375 62.1173 8C68.9827 7.625 75.924 8.375 82.84 9.875C89.756 11.375 96.6973 13.625 103.613 13.625C110.529 13.625 117.471 11.375 124.387 11.25C131.303 11.125 138.244 13.125 145.16 13.875C152.076 14.625 159.017 14.125 165.883 12.875C172.773 11.625 179.613 9.625 186.504 8.75C193.369 7.875 200.311 8.125 207.227 9.75C214.143 11.375 221.084 14.375 224.529 15.875L228 17.375V0H224.529C221.084 0 214.143 0 207.227 0C200.311 0 193.369 0 186.504 0C179.613 0 172.773 0 165.883 0C159.017 0 152.076 0 145.16 0C138.244 0 131.303 0 124.387 0C117.471 0 110.529 0 103.613 0C96.6973 0 89.756 0 82.84 0C75.924 0 68.9827 0 62.1173 0C55.2267 0 48.3867 0 41.496 0C34.6307 0 27.6893 0 20.7733 0C13.8573 0 6.916 0 3.47067 0H0V7.625Z" fill="#69C4F1"/>
<path d="M0 21.875L3.47067 23C6.916 24.125 13.8573 26.375 20.7733 28.25C27.6893 30.125 34.6307 31.625 41.496 29.375C48.3867 27.125 55.2267 21.125 62.1173 20.125C68.9827 19.125 75.924 23.125 82.84 26.25C89.756 29.375 96.6973 31.625 103.613 32.375C110.529 33.125 117.471 32.375 124.387 30.5C131.303 28.625 138.244 25.625 145.16 26.25C152.076 26.875 159.017 31.125 165.883 31C172.773 30.875 179.613 26.375 186.504 24C193.369 21.625 200.311 21.375 207.227 22.25C214.143 23.125 221.084 25.125 224.529 26.125L228 27.125V17.125L224.529 15.625C221.084 14.125 214.143 11.125 207.227 9.5C200.311 7.875 193.369 7.625 186.504 8.5C179.613 9.375 172.773 11.375 165.883 12.625C159.017 13.875 152.076 14.375 145.16 13.625C138.244 12.875 131.303 10.875 124.387 11C117.471 11.125 110.529 13.375 103.613 13.375C96.6973 13.375 89.756 11.125 82.84 9.625C75.924 8.125 68.9827 7.375 62.1173 7.75C55.2267 8.125 48.3867 9.625 41.496 10C34.6307 10.375 27.6893 9.625 20.7733 9C13.8573 8.375 6.916 7.875 3.47067 7.625L0 7.375V21.875Z" fill="#39B4EE"/>
<path d="M0 44.375L3.47067 46.875C6.916 49.375 13.8573 54.375 20.7733 57C27.6893 59.625 34.6307 59.875 41.496 57.125C48.3867 54.375 55.2267 48.625 62.1173 46.875C68.9827 45.125 75.924 47.375 82.84 48.25C89.756 49.125 96.6973 48.625 103.613 48.25C110.529 47.875 117.471 47.625 124.387 48.25C131.303 48.875 138.244 50.375 145.16 51.875C152.076 53.375 159.017 54.875 165.883 55C172.773 55.125 179.613 53.875 186.504 51.25C193.369 48.625 200.311 44.625 207.227 46.125C214.143 47.625 221.084 54.625 224.529 58.125L228 61.625V26.875L224.529 25.875C221.084 24.875 214.143 22.875 207.227 22C200.311 21.125 193.369 21.375 186.504 23.75C179.613 26.125 172.773 30.625 165.883 30.75C159.017 30.875 152.076 26.625 145.16 26C138.244 25.375 131.303 28.375 124.387 30.25C117.471 32.125 110.529 32.875 103.613 32.125C96.6973 31.375 89.756 29.125 82.84 26C75.924 22.875 68.9827 18.875 62.1173 19.875C55.2267 20.875 48.3867 26.875 41.496 29.125C34.6307 31.375 27.6893 29.875 20.7733 28C13.8573 26.125 6.916 23.875 3.47067 22.75L0 21.625V44.375Z" fill="#009CD6"/>
<path d="M0 75.125H3.47067C6.916 75.125 13.8573 75.125 20.7733 75.125C27.6893 75.125 34.6307 75.125 41.496 75.125C48.3867 75.125 55.2267 75.125 62.1173 75.125C68.9827 75.125 75.924 75.125 82.84 75.125C89.756 75.125 96.6973 75.125 103.613 75.125C110.529 75.125 117.471 75.125 124.387 75.125C131.303 75.125 138.244 75.125 145.16 75.125C152.076 75.125 159.017 75.125 165.883 75.125C172.773 75.125 179.613 75.125 186.504 75.125C193.369 75.125 200.311 75.125 207.227 75.125C214.143 75.125 221.084 75.125 224.529 75.125H228V61.375L224.529 57.875C221.084 54.375 214.143 47.375 207.227 45.875C200.311 44.375 193.369 48.375 186.504 51C179.613 53.625 172.773 54.875 165.883 54.75C159.017 54.625 152.076 53.125 145.16 51.625C138.244 50.125 131.303 48.625 124.387 48C117.471 47.375 110.529 47.625 103.613 48C96.6973 48.375 89.756 48.875 82.84 48C75.924 47.125 68.9827 44.875 62.1173 46.625C55.2267 48.375 48.3867 54.125 41.496 56.875C34.6307 59.625 27.6893 59.375 20.7733 56.75C13.8573 54.125 6.916 49.125 3.47067 46.625L0 44.125V75.125Z" fill="#007EAC"/>
</svg>

