<svg width="1278" height="832" viewBox="0 0 1278 832" fill="none" xmlns="http://www.w3.org/2000/svg">
<g clip-path="url(#clip0_1355_431)">
<path d="M0 59.6267L19.454 65.1733C38.766 70.72 77.674 81.8133 116.44 92.9067C155.206 104 194.114 115.093 232.596 117.867C271.22 120.64 309.56 115.093 348.184 119.253C386.666 123.413 425.574 137.28 464.34 128.96C503.106 120.64 542.014 90.1333 580.78 77.6533C619.546 65.1733 658.454 70.72 697.22 72.1067C735.986 73.4933 774.894 70.72 813.66 72.1067C852.426 73.4933 891.334 79.04 929.816 91.52C968.44 104 1006.78 123.413 1045.4 124.8C1083.89 126.187 1122.79 109.547 1161.56 99.84C1200.33 90.1333 1239.23 87.36 1258.55 85.9733L1278 84.5867V0H1258.55C1239.23 0 1200.33 0 1161.56 0C1122.79 0 1083.89 0 1045.4 0C1006.78 0 968.44 0 929.816 0C891.334 0 852.426 0 813.66 0C774.894 0 735.986 0 697.22 0C658.454 0 619.546 0 580.78 0C542.014 0 503.106 0 464.34 0C425.574 0 386.666 0 348.184 0C309.56 0 271.22 0 232.596 0C194.114 0 155.206 0 116.44 0C77.674 0 38.766 0 19.454 0H0V59.6267Z" fill="#004586"/>
<path d="M0 192.747L19.454 201.067C38.766 209.387 77.674 226.027 116.44 245.44C155.206 264.853 194.114 287.04 232.596 296.747C271.22 306.453 309.56 303.68 348.184 310.613C386.666 317.547 425.574 334.187 464.34 324.48C503.106 314.773 542.014 278.72 580.78 282.88C619.546 287.04 658.454 331.413 697.22 328.64C735.986 325.867 774.894 275.947 813.66 282.88C852.426 289.813 891.334 353.6 929.816 361.92C968.44 370.24 1006.78 323.093 1045.4 306.453C1083.89 289.813 1122.79 303.68 1161.56 307.84C1200.33 312 1239.23 306.453 1258.55 303.68L1278 300.907V81.8133L1258.55 83.2C1239.23 84.5867 1200.33 87.36 1161.56 97.0667C1122.79 106.773 1083.89 123.413 1045.4 122.027C1006.78 120.64 968.44 101.227 929.816 88.7467C891.334 76.2667 852.426 70.72 813.66 69.3333C774.894 67.9467 735.986 70.72 697.22 69.3333C658.454 67.9467 619.546 62.4 580.78 74.88C542.014 87.36 503.106 117.867 464.34 126.187C425.574 134.507 386.666 120.64 348.184 116.48C309.56 112.32 271.22 117.867 232.596 115.093C194.114 112.32 155.206 101.227 116.44 90.1333C77.674 79.04 38.766 67.9467 19.454 62.4L0 56.8533V192.747Z" fill="#003573"/>
<path d="M0 483.947L19.454 503.36C38.766 522.773 77.674 561.6 116.44 568.533C155.206 575.467 194.114 550.507 232.596 547.733C271.22 544.96 309.56 564.373 348.184 568.533C386.666 572.693 425.574 561.6 464.34 551.893C503.106 542.187 542.014 533.867 580.78 528.32C619.546 522.773 658.454 520 697.22 529.707C735.986 539.413 774.894 561.6 813.66 574.08C852.426 586.56 891.334 589.333 929.816 592.107C968.44 594.88 1006.78 597.653 1045.4 593.493C1083.89 589.333 1122.79 578.24 1161.56 569.92C1200.33 561.6 1239.23 556.053 1258.55 553.28L1278 550.507V298.133L1258.55 300.907C1239.23 303.68 1200.33 309.227 1161.56 305.067C1122.79 300.907 1083.89 287.04 1045.4 303.68C1006.78 320.32 968.44 367.467 929.816 359.147C891.334 350.827 852.426 287.04 813.66 280.107C774.894 273.173 735.986 323.093 697.22 325.867C658.454 328.64 619.546 284.267 580.78 280.107C542.014 275.947 503.106 312 464.34 321.707C425.574 331.413 386.666 314.773 348.184 307.84C309.56 300.907 271.22 303.68 232.596 293.973C194.114 284.267 155.206 262.08 116.44 242.667C77.674 223.253 38.766 206.613 19.454 198.293L0 189.973V483.947Z" fill="#002561"/>
<path d="M0 625.387L19.454 639.253C38.766 653.12 77.674 680.853 116.44 682.24C155.206 683.627 194.114 658.667 232.596 648.96C271.22 639.253 309.56 644.8 348.184 642.027C386.666 639.253 425.574 628.16 464.34 624C503.106 619.84 542.014 622.613 580.78 629.547C619.546 636.48 658.454 647.573 697.22 648.96C735.986 650.347 774.894 642.027 813.66 650.347C852.426 658.667 891.334 683.627 929.816 697.493C968.44 711.36 1006.78 714.133 1045.4 707.2C1083.89 700.267 1122.79 683.627 1161.56 679.467C1200.33 675.307 1239.23 683.627 1258.55 687.787L1278 691.947V547.733L1258.55 550.507C1239.23 553.28 1200.33 558.827 1161.56 567.147C1122.79 575.467 1083.89 586.56 1045.4 590.72C1006.78 594.88 968.44 592.107 929.816 589.333C891.334 586.56 852.426 583.787 813.66 571.307C774.894 558.827 735.986 536.64 697.22 526.933C658.454 517.227 619.546 520 580.78 525.547C542.014 531.093 503.106 539.413 464.34 549.12C425.574 558.827 386.666 569.92 348.184 565.76C309.56 561.6 271.22 542.187 232.596 544.96C194.114 547.733 155.206 572.693 116.44 565.76C77.674 558.827 38.766 520 19.454 500.587L0 481.173V625.387Z" fill="#00154F"/>
<path d="M0 833.387H19.454C38.766 833.387 77.674 833.387 116.44 833.387C155.206 833.387 194.114 833.387 232.596 833.387C271.22 833.387 309.56 833.387 348.184 833.387C386.666 833.387 425.574 833.387 464.34 833.387C503.106 833.387 542.014 833.387 580.78 833.387C619.546 833.387 658.454 833.387 697.22 833.387C735.986 833.387 774.894 833.387 813.66 833.387C852.426 833.387 891.334 833.387 929.816 833.387C968.44 833.387 1006.78 833.387 1045.4 833.387C1083.89 833.387 1122.79 833.387 1161.56 833.387C1200.33 833.387 1239.23 833.387 1258.55 833.387H1278V689.173L1258.55 685.013C1239.23 680.853 1200.33 672.533 1161.56 676.693C1122.79 680.853 1083.89 697.493 1045.4 704.427C1006.78 711.36 968.44 708.587 929.816 694.72C891.334 680.853 852.426 655.893 813.66 647.573C774.894 639.253 735.986 647.573 697.22 646.187C658.454 644.8 619.546 633.707 580.78 626.773C542.014 619.84 503.106 617.067 464.34 621.227C425.574 625.387 386.666 636.48 348.184 639.253C309.56 642.027 271.22 636.48 232.596 646.187C194.114 655.893 155.206 680.853 116.44 679.467C77.674 678.08 38.766 650.347 19.454 636.48L0 622.613V833.387Z" fill="#01003D"/>
<g opacity="0.1">
<rect width="1278" height="833.387" fill="white"/>
</g>
</g>
<defs>
<clipPath id="clip0_1355_431">
<rect width="1278" height="832" fill="white"/>
</clipPath>
</defs>
</svg>
