<svg width="13" height="24" viewBox="0 0 13 24" fill="none" xmlns="http://www.w3.org/2000/svg">
<path d="M4.47985 16.8636V16.7358C4.49405 15.3793 4.6361 14.2997 4.90598 13.4972C5.17587 12.6946 5.55939 12.0447 6.05655 11.5476C6.55371 11.0504 7.1503 10.5923 7.84632 10.1733C8.26536 9.91761 8.64178 9.61577 8.97559 9.26776C9.30939 8.91264 9.57218 8.50426 9.76394 8.04261C9.9628 7.58097 10.0622 7.0696 10.0622 6.50852C10.0622 5.8125 9.89888 5.20881 9.57218 4.69744C9.24547 4.18608 8.80868 3.7919 8.26181 3.51491C7.71493 3.23793 7.10769 3.09943 6.44007 3.09943C5.85769 3.09943 5.29661 3.22017 4.75684 3.46165C4.21706 3.70312 3.76607 4.0831 3.40385 4.60156C3.04164 5.12003 2.83212 5.79829 2.7753 6.63636H0.0906427C0.147461 5.42898 0.459961 4.3956 1.02814 3.53622C1.60343 2.67685 2.35982 2.01989 3.29732 1.56534C4.24192 1.11079 5.28951 0.883522 6.44007 0.883522C7.69007 0.883522 8.77672 1.1321 9.70002 1.62926C10.6304 2.12642 11.3477 2.80824 11.852 3.67471C12.3634 4.54119 12.6191 5.52841 12.6191 6.63636C12.6191 7.41761 12.4983 8.12429 12.2568 8.75639C12.0225 9.38849 11.6816 9.95312 11.2341 10.4503C10.7938 10.9474 10.2611 11.3878 9.6361 11.7713C9.0111 12.1619 8.51039 12.5739 8.13397 13.0071C7.75755 13.4332 7.48411 13.9411 7.31365 14.5305C7.1432 15.12 7.05087 15.8551 7.03667 16.7358V16.8636H4.47985ZM5.84348 23.1705C5.31792 23.1705 4.86692 22.9822 4.4905 22.6058C4.11408 22.2294 3.92587 21.7784 3.92587 21.2528C3.92587 20.7273 4.11408 20.2763 4.4905 19.8999C4.86692 19.5234 5.31792 19.3352 5.84348 19.3352C6.36905 19.3352 6.82005 19.5234 7.19647 19.8999C7.57289 20.2763 7.7611 20.7273 7.7611 21.2528C7.7611 21.6009 7.67232 21.9205 7.49476 22.2116C7.32431 22.5028 7.09348 22.7372 6.80229 22.9148C6.5182 23.0852 6.1986 23.1705 5.84348 23.1705Z" fill="black"/>
</svg>
