<svg width="22" height="23" viewBox="0 0 22 23" fill="none" xmlns="http://www.w3.org/2000/svg">
<path d="M20.3275 22.0482L12.8856 14.6124C12.295 15.0845 11.6158 15.4582 10.848 15.7336C10.0802 16.009 9.26312 16.1467 8.39687 16.1467C6.25094 16.1467 4.43496 15.4043 2.94895 13.9195C1.46215 12.4339 0.71875 10.619 0.71875 8.47485C0.71875 6.33066 1.46215 4.51577 2.94895 3.03018C4.43496 1.54538 6.25094 0.802979 8.39687 0.802979C10.5428 0.802979 12.3592 1.54538 13.846 3.03018C15.332 4.51577 16.075 6.33066 16.075 8.47485C16.075 9.3404 15.9372 10.1568 15.6616 10.924C15.3859 11.6911 15.0119 12.3698 14.5394 12.96L21.9812 20.3958L20.3275 22.0482ZM8.39687 13.7862C9.87344 13.7862 11.1287 13.27 12.1627 12.2376C13.1959 11.2045 13.7125 9.95021 13.7125 8.47485C13.7125 6.99949 13.1959 5.74524 12.1627 4.71209C11.1287 3.67973 9.87344 3.16356 8.39687 3.16356C6.92031 3.16356 5.66504 3.67973 4.63105 4.71209C3.59785 5.74524 3.08125 6.99949 3.08125 8.47485C3.08125 9.95021 3.59785 11.2045 4.63105 12.2376C5.66504 13.27 6.92031 13.7862 8.39687 13.7862Z" fill="#D9D9D9"/>
</svg>
