<svg width="1280" height="832" viewBox="0 0 1280 832" fill="none" xmlns="http://www.w3.org/2000/svg">
<g clip-path="url(#clip0_3_2)">
<path d="M1280 0H0V832H1280V0Z" fill="#0A0950"/>
<path d="M0 341.12L26.7378 338.347C53.6178 335.573 107.093 330.027 160.427 328.363C213.76 326.837 266.951 329.056 320.284 327.947C373.618 326.837 427.093 322.123 480.427 329.056C533.76 335.989 586.951 354.571 640.284 357.76C693.618 360.949 747.093 349.024 800.427 358.176C853.76 367.467 906.951 397.973 960.284 401.717C1013.62 405.323 1067.09 382.304 1120.43 366.08C1173.76 349.856 1226.95 340.704 1253.4 335.989L1280 331.413V833.387H1253.4C1226.95 833.387 1173.76 833.387 1120.43 833.387C1067.09 833.387 1013.62 833.387 960.284 833.387C906.951 833.387 853.76 833.387 800.427 833.387C747.093 833.387 693.618 833.387 640.284 833.387C586.951 833.387 533.76 833.387 480.427 833.387C427.093 833.387 373.618 833.387 320.284 833.387C266.951 833.387 213.76 833.387 160.427 833.387C107.093 833.387 53.6178 833.387 26.7378 833.387H0V341.12Z" fill="#3120A3"/>
<path d="M0 520L26.7378 519.584C53.6178 519.029 107.093 518.197 160.427 508.907C213.76 499.616 266.951 482.144 320.284 471.189C373.618 460.373 427.093 456.213 480.427 451.637C533.76 446.923 586.951 441.931 640.284 437.909C693.618 434.027 747.093 431.253 800.427 428.757C853.76 426.123 906.951 423.904 960.284 425.429C1013.62 427.093 1067.09 432.64 1120.43 441.237C1173.76 449.696 1226.95 461.344 1253.4 467.029L1280 472.853V833.387H1253.4C1226.95 833.387 1173.76 833.387 1120.43 833.387C1067.09 833.387 1013.62 833.387 960.284 833.387C906.951 833.387 853.76 833.387 800.427 833.387C747.093 833.387 693.618 833.387 640.284 833.387C586.951 833.387 533.76 833.387 480.427 833.387C427.093 833.387 373.618 833.387 320.284 833.387C266.951 833.387 213.76 833.387 160.427 833.387C107.093 833.387 53.6178 833.387 26.7378 833.387H0V520Z" fill="#4A28B2"/>
<path d="M0 597.653L26.7378 591.829C53.6178 586.144 107.093 574.496 160.427 565.483C213.76 556.469 266.951 550.091 320.284 543.296C373.618 536.64 427.093 529.707 480.427 533.589C533.76 537.611 586.951 552.309 640.284 566.869C693.618 581.429 747.093 595.851 800.427 600.843C853.76 605.973 906.951 601.813 960.284 602.091C1013.62 602.229 1067.09 606.944 1120.43 592.384C1173.76 577.824 1226.95 543.989 1253.4 527.211L1280 510.293V833.387H1253.4C1226.95 833.387 1173.76 833.387 1120.43 833.387C1067.09 833.387 1013.62 833.387 960.284 833.387C906.951 833.387 853.76 833.387 800.427 833.387C747.093 833.387 693.618 833.387 640.284 833.387C586.951 833.387 533.76 833.387 480.427 833.387C427.093 833.387 373.618 833.387 320.284 833.387C266.951 833.387 213.76 833.387 160.427 833.387C107.093 833.387 53.6178 833.387 26.7378 833.387H0V597.653Z" fill="#6131C1"/>
<path d="M0 675.307L26.7378 664.213C53.6178 653.12 107.093 630.933 160.427 631.904C213.76 632.736 266.951 656.864 320.284 666.571C373.618 676.277 427.093 671.563 480.427 663.52C533.76 655.477 586.951 643.829 640.284 636.48C693.618 629.131 747.093 625.803 800.427 623.584C853.76 621.227 906.951 619.84 960.284 626.496C1013.62 633.291 1067.09 647.989 1120.43 650.069C1173.76 652.149 1226.95 641.611 1253.4 636.203L1280 630.933V833.387H1253.4C1226.95 833.387 1173.76 833.387 1120.43 833.387C1067.09 833.387 1013.62 833.387 960.284 833.387C906.951 833.387 853.76 833.387 800.427 833.387C747.093 833.387 693.618 833.387 640.284 833.387C586.951 833.387 533.76 833.387 480.427 833.387C427.093 833.387 373.618 833.387 320.284 833.387C266.951 833.387 213.76 833.387 160.427 833.387C107.093 833.387 53.6178 833.387 26.7378 833.387H0V675.307Z" fill="#773AD0"/>
<path d="M0 766.827L26.7378 767.243C53.6178 767.797 107.093 768.629 160.427 762.944C213.76 757.12 266.951 744.64 320.284 732.576C373.618 720.651 427.093 709.003 480.427 711.776C533.76 714.549 586.951 731.744 640.284 739.509C693.618 747.413 747.093 746.027 800.427 742.144C853.76 738.123 906.951 731.744 960.284 729.803C1013.62 728 1067.09 730.773 1120.43 737.707C1173.76 744.64 1226.95 755.733 1253.4 761.28L1280 766.827V833.387H1253.4C1226.95 833.387 1173.76 833.387 1120.43 833.387C1067.09 833.387 1013.62 833.387 960.284 833.387C906.951 833.387 853.76 833.387 800.427 833.387C747.093 833.387 693.618 833.387 640.284 833.387C586.951 833.387 533.76 833.387 480.427 833.387C427.093 833.387 373.618 833.387 320.284 833.387C266.951 833.387 213.76 833.387 160.427 833.387C107.093 833.387 53.6178 833.387 26.7378 833.387H0V766.827Z" fill="#8D44DF"/>
</g>
<defs>
<clipPath id="clip0_3_2">
<rect width="1280" height="832" fill="white"/>
</clipPath>
</defs>
</svg>
